<svg width="1540" height="764" viewBox="0 0 1540 764" fill="none" xmlns="http://www.w3.org/2000/svg">
<path d="M185.059 754.219H50.7812V32.0508H83.0078L136.23 95.0391C148.275 83.6458 161.458 72.9036 175.781 62.8125C190.104 52.7214 204.915 44.0951 220.215 36.9336C235.84 29.4466 251.953 23.5872 268.555 19.3555C285.156 15.1237 301.921 13.0078 318.848 13.0078C355.632 13.0078 390.137 19.681 422.363 33.0273C454.915 46.0482 483.236 64.6029 507.324 88.6914C531.738 112.78 550.944 141.914 564.941 176.094C578.939 209.948 585.938 247.546 585.938 288.887C585.938 331.855 578.939 370.592 564.941 405.098C550.944 439.277 531.738 468.411 507.324 492.5C483.236 516.263 454.915 534.492 422.363 547.188C390.137 559.883 355.632 566.23 318.848 566.23C307.129 566.23 295.41 564.928 283.691 562.324C272.298 559.72 260.905 556.302 249.512 552.07C238.444 547.513 227.376 542.467 216.309 536.934C205.566 531.4 195.15 525.703 185.059 519.844V754.219ZM452.148 288.887C452.148 266.751 448.568 246.895 441.406 229.316C434.57 211.738 425.13 196.927 413.086 184.883C401.042 172.513 386.882 163.073 370.605 156.562C354.329 150.052 337.077 146.797 318.848 146.797C300.618 146.797 283.366 150.052 267.09 156.562C251.139 163.073 237.142 172.513 225.098 184.883C213.053 196.927 203.451 211.738 196.289 229.316C189.453 246.895 186.035 266.751 186.035 288.887C186.035 310.046 189.453 329.414 196.289 346.992C203.451 364.57 213.053 379.544 225.098 391.914C237.142 404.284 251.139 413.887 267.09 420.723C283.366 427.559 300.618 430.977 318.848 430.977C337.077 430.977 354.329 427.559 370.605 420.723C386.882 413.887 401.042 404.284 413.086 391.914C425.13 379.544 434.57 364.57 441.406 346.992C448.568 329.414 452.148 310.046 452.148 288.887ZM793.457 555H660.156V32.0508H692.383L736.328 94.0625C757.812 74.5312 782.227 59.5573 809.57 49.1406C836.914 38.3984 865.234 33.0273 894.531 33.0273H1012.21V165.84H894.531C880.534 165.84 867.35 168.444 854.98 173.652C842.611 178.861 831.868 186.022 822.754 195.137C813.639 204.251 806.478 214.993 801.27 227.363C796.061 239.733 793.457 252.917 793.457 266.914V555ZM1272.46 427.07C1277.67 428.698 1282.88 429.837 1288.09 430.488C1293.29 430.814 1298.5 430.977 1303.71 430.977C1316.73 430.977 1329.26 429.186 1341.31 425.605C1353.35 422.025 1364.58 416.979 1375 410.469C1385.74 403.633 1395.18 395.495 1403.32 386.055C1411.78 376.289 1418.62 365.547 1423.83 353.828L1521.48 451.973C1509.11 469.551 1494.79 485.339 1478.52 499.336C1462.57 513.333 1445.15 525.215 1426.27 534.98C1407.71 544.746 1388.02 552.07 1367.19 556.953C1346.68 562.161 1325.52 564.766 1303.71 564.766C1266.93 564.766 1232.26 557.93 1199.71 544.258C1167.48 530.586 1139.16 511.543 1114.75 487.129C1090.66 462.715 1071.61 433.743 1057.62 400.215C1043.62 366.361 1036.62 329.251 1036.62 288.887C1036.62 247.546 1043.62 209.785 1057.62 175.605C1071.61 141.426 1090.66 112.292 1114.75 88.2031C1139.16 64.1146 1167.48 45.3971 1199.71 32.0508C1232.26 18.7044 1266.93 12.0312 1303.71 12.0312C1325.52 12.0312 1346.84 14.6354 1367.68 19.8438C1388.51 25.0521 1408.2 32.5391 1426.76 42.3047C1445.64 52.0703 1463.22 64.1146 1479.49 78.4375C1495.77 92.4349 1510.09 108.223 1522.46 125.801L1272.46 427.07ZM1340.82 152.168C1334.64 149.889 1328.45 148.424 1322.27 147.773C1316.41 147.122 1310.22 146.797 1303.71 146.797C1285.48 146.797 1268.23 150.215 1251.95 157.051C1236 163.561 1222.01 173.001 1209.96 185.371C1198.24 197.741 1188.96 212.715 1182.13 230.293C1175.29 247.546 1171.88 267.077 1171.88 288.887C1171.88 293.77 1172.04 299.303 1172.36 305.488C1173.01 311.673 1173.83 318.021 1174.8 324.531C1176.11 330.716 1177.57 336.738 1179.2 342.598C1180.83 348.457 1182.94 353.665 1185.55 358.223L1340.82 152.168Z" fill="black"/>
<path d="M243.416 712V687.328H252.632C256.088 687.328 259.32 686.944 262.328 686.176C265.336 685.344 267.992 684.096 270.296 682.432C272.6 680.768 274.424 678.624 275.768 676C277.112 673.376 277.784 670.304 277.784 666.784C277.784 661.984 276.728 658.112 274.616 655.168C272.504 652.224 269.624 650.08 265.976 648.736C262.328 647.392 258.232 646.72 253.688 646.72H235.928V712H243.416ZM253.688 653.152C257.016 653.152 259.864 653.6 262.232 654.496C264.664 655.328 266.552 656.736 267.896 658.72C269.304 660.704 270.008 663.456 270.008 666.976C269.944 670.304 269.144 672.992 267.608 675.04C266.136 677.088 264.12 678.592 261.56 679.552C259 680.448 256.12 680.896 252.92 680.896H243.416V653.152H253.688ZM294.442 712V679.936C295.85 678.528 297.482 677.184 299.338 675.904C301.194 674.624 303.146 673.568 305.194 672.736C307.306 671.904 309.258 671.488 311.05 671.488L309.226 665.44C307.562 665.44 305.738 665.856 303.754 666.688C301.834 667.52 299.978 668.544 298.186 669.76C296.458 670.912 294.986 671.968 293.77 672.928L291.466 665.44H286.954V712H294.442ZM356.767 689.92V689.248C356.767 684.576 356.063 680.352 354.655 676.576C353.311 672.8 351.167 669.792 348.223 667.552C345.343 665.312 341.567 664.192 336.895 664.192C332.287 664.192 328.351 665.248 325.087 667.36C321.887 669.408 319.423 672.256 317.695 675.904C316.031 679.552 315.199 683.776 315.199 688.576C315.199 693.44 316.095 697.728 317.887 701.44C319.679 705.152 322.367 708.032 325.951 710.08C329.599 712.128 334.143 713.152 339.583 713.152C341.887 713.152 343.999 712.928 345.919 712.48C347.903 712.096 349.727 711.552 351.391 710.848C353.119 710.08 354.719 709.28 356.191 708.448L353.695 702.88C351.263 704.096 348.959 705.088 346.783 705.856C344.607 706.56 342.175 706.912 339.487 706.912C335.647 706.912 332.543 706.176 330.175 704.704C327.807 703.232 326.047 701.216 324.895 698.656C323.807 696.096 323.167 693.184 322.975 689.92H356.767ZM323.167 684.736C323.487 681.92 324.159 679.456 325.183 677.344C326.271 675.232 327.743 673.6 329.599 672.448C331.519 671.232 333.855 670.624 336.607 670.624C339.295 670.624 341.503 671.232 343.231 672.448C345.023 673.6 346.399 675.232 347.359 677.344C348.319 679.456 348.959 681.92 349.279 684.736H323.167ZM363.586 709.312C364.866 710.144 366.402 710.848 368.194 711.424C369.986 712 371.81 712.448 373.666 712.768C375.586 713.088 377.186 713.248 378.466 713.248C384.546 713.248 389.154 712.064 392.29 709.696C395.49 707.264 397.09 703.936 397.09 699.712C397.09 697.152 396.322 694.944 394.786 693.088C393.25 691.232 391.298 689.632 388.93 688.288C386.562 686.944 384.098 685.856 381.538 685.024C378.466 684 375.906 682.88 373.858 681.664C371.81 680.384 370.754 678.88 370.69 677.152C370.69 675.168 371.586 673.536 373.378 672.256C375.234 670.976 377.602 670.336 380.482 670.336C383.17 670.336 385.506 670.688 387.49 671.392C389.474 672.096 391.234 672.832 392.77 673.6L395.17 668.32C394.018 667.488 392.546 666.784 390.754 666.208C388.962 665.568 387.138 665.088 385.281 664.768C383.49 664.384 381.922 664.192 380.578 664.192C375.266 664.192 371.042 665.376 367.906 667.744C364.77 670.048 363.202 673.28 363.202 677.44C363.202 679.872 363.97 681.984 365.506 683.776C367.042 685.504 368.962 686.976 371.266 688.192C373.634 689.344 376.034 690.336 378.466 691.168C380.578 691.872 382.498 692.672 384.226 693.568C385.954 694.4 387.33 695.36 388.354 696.448C389.442 697.536 389.986 698.784 389.986 700.192C389.986 701.6 389.506 702.848 388.546 703.936C387.586 704.96 386.242 705.76 384.514 706.336C382.85 706.848 380.866 707.104 378.562 707.104C377.09 707.104 375.618 706.976 374.146 706.72C372.674 706.4 371.234 706.016 369.826 705.568C368.482 705.056 367.17 704.512 365.89 703.936L363.586 709.312ZM444.986 689.92V689.248C444.986 684.576 444.282 680.352 442.874 676.576C441.53 672.8 439.386 669.792 436.442 667.552C433.562 665.312 429.786 664.192 425.114 664.192C420.506 664.192 416.57 665.248 413.306 667.36C410.106 669.408 407.642 672.256 405.914 675.904C404.25 679.552 403.418 683.776 403.418 688.576C403.418 693.44 404.314 697.728 406.106 701.44C407.898 705.152 410.586 708.032 414.17 710.08C417.818 712.128 422.362 713.152 427.802 713.152C430.106 713.152 432.218 712.928 434.138 712.48C436.122 712.096 437.946 711.552 439.61 710.848C441.338 710.08 442.938 709.28 444.41 708.448L441.914 702.88C439.482 704.096 437.178 705.088 435.002 705.856C432.826 706.56 430.394 706.912 427.706 706.912C423.866 706.912 420.762 706.176 418.394 704.704C416.026 703.232 414.266 701.216 413.114 698.656C412.026 696.096 411.386 693.184 411.194 689.92H444.986ZM411.386 684.736C411.706 681.92 412.378 679.456 413.402 677.344C414.49 675.232 415.962 673.6 417.818 672.448C419.738 671.232 422.074 670.624 424.826 670.624C427.514 670.624 429.722 671.232 431.45 672.448C433.242 673.6 434.618 675.232 435.578 677.344C436.538 679.456 437.178 681.92 437.498 684.736H411.386ZM461.692 712V679.936C463.1 678.528 464.732 677.184 466.588 675.904C468.444 674.624 470.396 673.568 472.444 672.736C474.556 671.904 476.508 671.488 478.3 671.488L476.476 665.44C474.812 665.44 472.988 665.856 471.004 666.688C469.084 667.52 467.228 668.544 465.436 669.76C463.708 670.912 462.236 671.968 461.02 672.928L458.716 665.44H454.204V712H461.692ZM504.721 712L522.001 665.44H514.417L501.073 701.728L487.153 663.904L480.241 666.88L497.329 712H504.721ZM536.697 712V665.44H529.017V712H536.697ZM532.761 656.224C534.169 656.224 535.385 655.744 536.409 654.784C537.433 653.76 537.945 652.512 537.945 651.04C537.945 649.568 537.401 648.352 536.313 647.392C535.289 646.368 534.073 645.856 532.665 645.856C531.193 645.856 529.977 646.368 529.017 647.392C528.057 648.352 527.577 649.568 527.577 651.04C527.577 652.512 528.057 653.76 529.017 654.784C529.977 655.744 531.225 656.224 532.761 656.224ZM556.192 712V678.976C557.728 677.376 559.392 675.968 561.184 674.752C562.976 673.472 564.8 672.448 566.656 671.68C568.576 670.912 570.304 670.528 571.84 670.528C575.04 670.528 577.216 671.552 578.368 673.6C579.584 675.648 580.192 678.272 580.192 681.472V712H587.776V680.512C587.776 677.312 587.264 674.496 586.24 672.064C585.216 669.568 583.616 667.616 581.44 666.208C579.328 664.736 576.576 664 573.184 664C571.136 664 569.024 664.352 566.848 665.056C564.672 665.76 562.624 666.72 560.704 667.936C558.784 669.152 557.088 670.528 555.616 672.064L554.272 665.44H548.704V712H556.192ZM637.437 665.44H632.829L629.757 671.584V716.992C629.757 720.64 628.445 723.36 625.821 725.152C623.261 726.944 620.029 727.84 616.125 727.84C613.053 727.84 610.493 727.456 608.445 726.688C606.397 725.984 604.413 725.184 602.493 724.288L600.189 729.76C601.213 730.464 602.429 731.072 603.837 731.584C605.309 732.096 606.813 732.544 608.349 732.928C609.949 733.312 611.453 733.6 612.861 733.792C614.269 733.984 615.453 734.08 616.413 734.08C620.829 734.08 624.605 733.312 627.741 731.776C630.877 730.304 633.277 728.288 634.941 725.728C636.605 723.168 637.437 720.256 637.437 716.992V665.44ZM631.965 699.904C630.173 702.08 628.253 703.776 626.205 704.992C624.157 706.208 621.661 706.816 618.717 706.816C615.517 706.816 612.829 706.048 610.653 704.512C608.541 702.912 606.941 700.736 605.853 697.984C604.829 695.168 604.317 692 604.317 688.48C604.317 685.088 604.861 682.08 605.949 679.456C607.037 676.768 608.669 674.624 610.845 673.024C613.021 671.424 615.677 670.624 618.813 670.624C621.885 670.624 624.413 671.232 626.397 672.448C628.445 673.6 630.365 675.168 632.157 677.152L634.461 671.968C633.181 670.368 631.645 668.992 629.853 667.84C628.125 666.688 626.301 665.792 624.381 665.152C622.461 664.512 620.669 664.192 619.005 664.192C614.397 664.192 610.397 665.248 607.005 667.36C603.677 669.408 601.117 672.256 599.325 675.904C597.533 679.552 596.637 683.776 596.637 688.576C596.637 693.44 597.501 697.728 599.229 701.44C600.957 705.152 603.485 708.064 606.813 710.176C610.141 712.224 614.141 713.248 618.813 713.248C620.413 713.248 622.173 712.96 624.093 712.384C626.013 711.808 627.869 710.912 629.661 709.696C631.453 708.48 633.021 707.04 634.365 705.376L631.965 699.904ZM693.094 653.152C696.294 653.152 699.11 653.536 701.542 654.304C703.974 655.008 705.894 656.288 707.302 658.144C708.71 660 709.414 662.624 709.414 666.016C709.414 669.28 708.614 671.872 707.014 673.792C705.414 675.648 703.334 676.992 700.774 677.824C698.214 678.656 695.398 679.072 692.326 679.072H682.822V653.152H693.094ZM675.334 646.72V712H682.822V685.216H692.038C693.126 685.216 694.31 685.184 695.59 685.12C696.934 685.056 698.054 684.96 698.95 684.832L713.926 712H722.278L705.67 682.816C708.998 681.408 711.718 679.328 713.83 676.576C716.006 673.76 717.126 670.144 717.19 665.728C717.19 661.12 716.134 657.44 714.022 654.688C711.91 651.872 709.03 649.856 705.382 648.64C701.734 647.36 697.638 646.72 693.094 646.72H675.334ZM767.955 689.92V689.248C767.955 684.576 767.251 680.352 765.843 676.576C764.499 672.8 762.355 669.792 759.411 667.552C756.531 665.312 752.755 664.192 748.083 664.192C743.475 664.192 739.539 665.248 736.275 667.36C733.075 669.408 730.611 672.256 728.883 675.904C727.219 679.552 726.387 683.776 726.387 688.576C726.387 693.44 727.283 697.728 729.075 701.44C730.867 705.152 733.555 708.032 737.139 710.08C740.787 712.128 745.331 713.152 750.771 713.152C753.075 713.152 755.187 712.928 757.107 712.48C759.091 712.096 760.915 711.552 762.579 710.848C764.307 710.08 765.907 709.28 767.379 708.448L764.883 702.88C762.451 704.096 760.147 705.088 757.971 705.856C755.795 706.56 753.363 706.912 750.675 706.912C746.835 706.912 743.731 706.176 741.363 704.704C738.995 703.232 737.235 701.216 736.083 698.656C734.995 696.096 734.355 693.184 734.163 689.92H767.955ZM734.355 684.736C734.675 681.92 735.347 679.456 736.371 677.344C737.459 675.232 738.931 673.6 740.787 672.448C742.707 671.232 745.043 670.624 747.795 670.624C750.483 670.624 752.691 671.232 754.419 672.448C756.211 673.6 757.587 675.232 758.547 677.344C759.507 679.456 760.147 681.92 760.467 684.736H734.355ZM809.621 703.648C807.829 704.544 805.973 705.312 804.053 705.952C802.197 706.528 799.733 706.816 796.661 706.816C793.461 706.816 790.741 706.016 788.501 704.416C786.325 702.816 784.693 700.64 783.605 697.888C782.517 695.072 781.973 691.936 781.973 688.48C782.037 685.152 782.645 682.144 783.797 679.456C785.013 676.768 786.741 674.624 788.981 673.024C791.221 671.424 793.909 670.624 797.045 670.624C800.053 670.624 802.517 670.976 804.437 671.68C806.357 672.32 808.213 673.024 810.005 673.792L812.309 668.512C811.029 667.616 809.429 666.848 807.509 666.208C805.653 665.568 803.797 665.088 801.941 664.768C800.085 664.384 798.517 664.192 797.237 664.192C792.565 664.192 788.501 665.248 785.045 667.36C781.589 669.408 778.933 672.256 777.077 675.904C775.285 679.552 774.357 683.776 774.293 688.576C774.293 693.44 775.189 697.728 776.981 701.44C778.773 705.152 781.333 708.064 784.661 710.176C788.053 712.224 792.085 713.248 796.757 713.248C798.101 713.248 799.701 713.056 801.557 712.672C803.413 712.352 805.269 711.872 807.125 711.232C809.045 710.592 810.677 709.856 812.021 709.024L809.621 703.648ZM840.438 713.248C835.83 713.312 831.862 712.288 828.534 710.176C825.206 708 822.646 705.088 820.854 701.44C819.126 697.728 818.262 693.44 818.262 688.576C818.326 683.84 819.254 679.648 821.046 676C822.902 672.352 825.526 669.472 828.918 667.36C832.374 665.248 836.438 664.192 841.11 664.192C845.782 664.192 849.782 665.216 853.11 667.264C856.438 669.312 858.998 672.16 860.79 675.808C862.582 679.456 863.478 683.808 863.478 688.864C863.478 693.6 862.518 697.792 860.598 701.44C858.742 705.088 856.086 707.968 852.63 710.08C849.238 712.192 845.174 713.248 840.438 713.248ZM840.63 706.816C843.83 706.816 846.55 706.016 848.79 704.416C851.03 702.816 852.726 700.672 853.878 697.984C855.094 695.296 855.702 692.288 855.702 688.96C855.702 685.44 855.126 682.304 853.974 679.552C852.886 676.8 851.254 674.624 849.078 673.024C846.966 671.424 844.278 670.624 841.014 670.624C837.878 670.624 835.19 671.424 832.95 673.024C830.71 674.624 828.982 676.768 827.766 679.456C826.614 682.144 826.006 685.152 825.942 688.48C825.942 691.936 826.486 695.072 827.574 697.888C828.662 700.64 830.294 702.816 832.47 704.416C834.71 706.016 837.43 706.816 840.63 706.816ZM880.099 712V679.936C881.507 678.528 883.139 677.184 884.995 675.904C886.851 674.624 888.803 673.568 890.851 672.736C892.963 671.904 894.915 671.488 896.707 671.488L894.883 665.44C893.219 665.44 891.395 665.856 889.411 666.688C887.491 667.52 885.635 668.544 883.843 669.76C882.115 670.912 880.643 671.968 879.427 672.928L877.123 665.44H872.611V712H880.099ZM933.976 704.512L937.048 712H941.656V644.32L933.976 645.28V704.512ZM936.184 699.904C934.392 702.08 932.472 703.776 930.424 704.992C928.376 706.208 925.88 706.816 922.936 706.816C919.736 706.816 917.048 706.048 914.872 704.512C912.76 702.912 911.16 700.736 910.072 697.984C909.048 695.168 908.536 692 908.536 688.48C908.536 685.088 909.08 682.08 910.168 679.456C911.256 676.768 912.888 674.624 915.064 673.024C917.24 671.424 919.896 670.624 923.031 670.624C926.104 670.624 928.632 671.232 930.616 672.448C932.664 673.6 934.584 675.168 936.376 677.152L938.68 671.968C937.4 670.368 935.864 668.992 934.072 667.84C932.344 666.688 930.52 665.792 928.6 665.152C926.68 664.512 924.888 664.192 923.224 664.192C918.616 664.192 914.616 665.248 911.224 667.36C907.896 669.408 905.336 672.256 903.544 675.904C901.752 679.552 900.855 683.776 900.855 688.576C900.855 693.44 901.72 697.728 903.448 701.44C905.176 705.152 907.704 708.064 911.032 710.176C914.36 712.224 918.36 713.248 923.031 713.248C924.632 713.248 926.392 712.96 928.312 712.384C930.232 711.808 932.088 710.912 933.88 709.696C935.672 708.48 937.24 707.04 938.584 705.376L936.184 699.904ZM952.242 709.312C953.522 710.144 955.058 710.848 956.85 711.424C958.642 712 960.466 712.448 962.322 712.768C964.242 713.088 965.842 713.248 967.122 713.248C973.202 713.248 977.81 712.064 980.946 709.696C984.146 707.264 985.746 703.936 985.746 699.712C985.746 697.152 984.978 694.944 983.442 693.088C981.906 691.232 979.954 689.632 977.586 688.288C975.218 686.944 972.754 685.856 970.194 685.024C967.122 684 964.562 682.88 962.514 681.664C960.466 680.384 959.41 678.88 959.346 677.152C959.346 675.168 960.242 673.536 962.034 672.256C963.89 670.976 966.258 670.336 969.138 670.336C971.826 670.336 974.162 670.688 976.146 671.392C978.13 672.096 979.89 672.832 981.426 673.6L983.826 668.32C982.674 667.488 981.202 666.784 979.41 666.208C977.618 665.568 975.794 665.088 973.938 664.768C972.146 664.384 970.578 664.192 969.234 664.192C963.922 664.192 959.698 665.376 956.562 667.744C953.426 670.048 951.858 673.28 951.858 677.44C951.858 679.872 952.626 681.984 954.162 683.776C955.698 685.504 957.618 686.976 959.922 688.192C962.29 689.344 964.69 690.336 967.122 691.168C969.234 691.872 971.154 692.672 972.882 693.568C974.61 694.4 975.986 695.36 977.01 696.448C978.098 697.536 978.642 698.784 978.642 700.192C978.642 701.6 978.162 702.848 977.202 703.936C976.242 704.96 974.898 705.76 973.17 706.336C971.506 706.848 969.522 707.104 967.218 707.104C965.746 707.104 964.274 706.976 962.802 706.72C961.33 706.4 959.89 706.016 958.482 705.568C957.138 705.056 955.826 704.512 954.546 703.936L952.242 709.312ZM1059.5 712L1058.64 706.048H1027.73V681.568H1051.25L1050.38 675.808H1027.73V652.48H1056.72L1055.86 646.72H1020.24V712H1059.5ZM1086.91 712L1104.19 665.44H1096.6L1083.26 701.728L1069.34 663.904L1062.43 666.88L1079.52 712H1086.91ZM1149.89 689.92V689.248C1149.89 684.576 1149.19 680.352 1147.78 676.576C1146.44 672.8 1144.29 669.792 1141.35 667.552C1138.47 665.312 1134.69 664.192 1130.02 664.192C1125.41 664.192 1121.48 665.248 1118.21 667.36C1115.01 669.408 1112.55 672.256 1110.82 675.904C1109.16 679.552 1108.32 683.776 1108.32 688.576C1108.32 693.44 1109.22 697.728 1111.01 701.44C1112.8 705.152 1115.49 708.032 1119.08 710.08C1122.72 712.128 1127.27 713.152 1132.71 713.152C1135.01 713.152 1137.12 712.928 1139.04 712.48C1141.03 712.096 1142.85 711.552 1144.52 710.848C1146.24 710.08 1147.84 709.28 1149.32 708.448L1146.82 702.88C1144.39 704.096 1142.08 705.088 1139.91 705.856C1137.73 706.56 1135.3 706.912 1132.61 706.912C1128.77 706.912 1125.67 706.176 1123.3 704.704C1120.93 703.232 1119.17 701.216 1118.02 698.656C1116.93 696.096 1116.29 693.184 1116.1 689.92H1149.89ZM1116.29 684.736C1116.61 681.92 1117.28 679.456 1118.31 677.344C1119.4 675.232 1120.87 673.6 1122.72 672.448C1124.64 671.232 1126.98 670.624 1129.73 670.624C1132.42 670.624 1134.63 671.232 1136.36 672.448C1138.15 673.6 1139.52 675.232 1140.48 677.344C1141.44 679.456 1142.08 681.92 1142.4 684.736H1116.29ZM1166.6 712V679.936C1168.01 678.528 1169.64 677.184 1171.49 675.904C1173.35 674.624 1175.3 673.568 1177.35 672.736C1179.46 671.904 1181.41 671.488 1183.21 671.488L1181.38 665.44C1179.72 665.44 1177.89 665.856 1175.91 666.688C1173.99 667.52 1172.13 668.544 1170.34 669.76C1168.61 670.912 1167.14 671.968 1165.93 672.928L1163.62 665.44H1159.11V712H1166.6ZM1199.45 719.584C1198.94 720.992 1198.2 722.176 1197.24 723.136C1196.28 724.096 1195.16 724.896 1193.88 725.536C1192.6 726.24 1191.2 726.944 1189.66 727.648L1191.96 733.12C1194.2 732.608 1196.28 731.808 1198.2 730.72C1200.12 729.696 1201.79 728.384 1203.2 726.784C1204.67 725.248 1205.76 723.52 1206.46 721.6L1226.91 665.44H1219.32L1205.98 701.44L1191.87 664L1185.15 666.88L1202.43 711.712L1199.45 719.584ZM1277.6 712L1291.43 665.44H1283.75L1273.96 701.152L1263.59 665.44H1255.91L1246.12 701.152L1235.75 664L1228.84 666.976L1242.28 712H1249.76L1259.65 676.576L1270.21 712H1277.6ZM1306.87 678.976C1308.41 677.376 1310.07 675.968 1311.86 674.752C1313.66 673.472 1315.48 672.448 1317.34 671.68C1319.26 670.912 1320.98 670.528 1322.52 670.528C1325.72 670.528 1327.9 671.552 1329.05 673.6C1330.26 675.648 1330.87 678.272 1330.87 681.472V712H1338.46V680.512C1338.46 677.312 1337.94 674.496 1336.92 672.064C1335.9 669.568 1334.3 667.616 1332.12 666.208C1330.01 664.736 1327.26 664 1323.86 664C1321.82 664 1319.7 664.352 1317.53 665.056C1315.35 665.76 1313.3 666.72 1311.38 667.936C1309.46 669.152 1307.77 670.528 1306.3 672.064L1306.87 678.976ZM1306.87 712V644.224L1299.38 645.28V712H1306.87ZM1388.86 689.92V689.248C1388.86 684.576 1388.16 680.352 1386.75 676.576C1385.41 672.8 1383.26 669.792 1380.32 667.552C1377.44 665.312 1373.66 664.192 1368.99 664.192C1364.38 664.192 1360.45 665.248 1357.18 667.36C1353.98 669.408 1351.52 672.256 1349.79 675.904C1348.13 679.552 1347.29 683.776 1347.29 688.576C1347.29 693.44 1348.19 697.728 1349.98 701.44C1351.77 705.152 1354.46 708.032 1358.05 710.08C1361.69 712.128 1366.24 713.152 1371.68 713.152C1373.98 713.152 1376.09 712.928 1378.01 712.48C1380 712.096 1381.82 711.552 1383.49 710.848C1385.21 710.08 1386.81 709.28 1388.29 708.448L1385.79 702.88C1383.36 704.096 1381.05 705.088 1378.88 705.856C1376.7 706.56 1374.27 706.912 1371.58 706.912C1367.74 706.912 1364.64 706.176 1362.27 704.704C1359.9 703.232 1358.14 701.216 1356.99 698.656C1355.9 696.096 1355.26 693.184 1355.07 689.92H1388.86ZM1355.26 684.736C1355.58 681.92 1356.25 679.456 1357.28 677.344C1358.37 675.232 1359.84 673.6 1361.69 672.448C1363.61 671.232 1365.95 670.624 1368.7 670.624C1371.39 670.624 1373.6 671.232 1375.33 672.448C1377.12 673.6 1378.49 675.232 1379.45 677.344C1380.41 679.456 1381.05 681.92 1381.37 684.736H1355.26ZM1405.57 712V679.936C1406.98 678.528 1408.61 677.184 1410.46 675.904C1412.32 674.624 1414.27 673.568 1416.32 672.736C1418.43 671.904 1420.38 671.488 1422.18 671.488L1420.35 665.44C1418.69 665.44 1416.86 665.856 1414.88 666.688C1412.96 667.52 1411.1 668.544 1409.31 669.76C1407.58 670.912 1406.11 671.968 1404.9 672.928L1402.59 665.44H1398.08V712H1405.57ZM1467.89 689.92V689.248C1467.89 684.576 1467.19 680.352 1465.78 676.576C1464.44 672.8 1462.29 669.792 1459.35 667.552C1456.47 665.312 1452.69 664.192 1448.02 664.192C1443.41 664.192 1439.48 665.248 1436.21 667.36C1433.01 669.408 1430.55 672.256 1428.82 675.904C1427.16 679.552 1426.32 683.776 1426.32 688.576C1426.32 693.44 1427.22 697.728 1429.01 701.44C1430.8 705.152 1433.49 708.032 1437.08 710.08C1440.72 712.128 1445.27 713.152 1450.71 713.152C1453.01 713.152 1455.12 712.928 1457.04 712.48C1459.03 712.096 1460.85 711.552 1462.52 710.848C1464.24 710.08 1465.84 709.28 1467.32 708.448L1464.82 702.88C1462.39 704.096 1460.08 705.088 1457.91 705.856C1455.73 706.56 1453.3 706.912 1450.61 706.912C1446.77 706.912 1443.67 706.176 1441.3 704.704C1438.93 703.232 1437.17 701.216 1436.02 698.656C1434.93 696.096 1434.29 693.184 1434.1 689.92H1467.89ZM1434.29 684.736C1434.61 681.92 1435.28 679.456 1436.31 677.344C1437.4 675.232 1438.87 673.6 1440.72 672.448C1442.64 671.232 1444.98 670.624 1447.73 670.624C1450.42 670.624 1452.63 671.232 1454.36 672.448C1456.15 673.6 1457.52 675.232 1458.48 677.344C1459.44 679.456 1460.08 681.92 1460.4 684.736H1434.29Z" fill="black"/>
</svg>
